<?xml version="1.0" encoding="UTF-8"?><svg id="Warstwa_1" xmlns="http://www.w3.org/2000/svg" viewBox="0 0 212.43 53.45"><defs><style>.cls-1{fill:#ec6907;}.cls-2{fill:#706f6f;}.cls-3{fill:none;}</style></defs><g id="Group_450"><path id="Path_495" class="cls-1" d="M110.9,7.28v6.33h3.47v13.48c0,3.49,.78,6.03,2.34,7.63,1.56,1.61,3.85,2.41,6.86,2.41,.88,0,1.75-.04,2.62-.15,.84-.12,1.67-.29,2.49-.5l-.61-6.76c-1.3,.31-3,.54-3.92-.42-.48-.65-.71-1.45-.63-2.26V13.62h4.63V7.28h-4.63V0h-9.14V7.28h-3.48Z"/><path id="Path_502" class="cls-1" d="M95.2,0h9.37V37.33h-9.37V0Z"/><path id="Path_496" class="cls-1" d="M134.3,7.28v29.29h9.15V17.81c.31-.69,.83-1.26,1.49-1.64,.79-.42,1.68-.62,2.57-.58l2.98,.03,.86-8.01c-.34-.1-.68-.18-1.03-.24-.37-.06-.74-.08-1.11-.08-3.48,0-5.23,1.11-6.17,2.07l-.14-2.07h-8.61Z"/><path id="Path_497" class="cls-1" d="M168.87,13.78c1.61-.12,3.14,.72,3.9,2.14,.85,1.79,1.25,3.75,1.16,5.73v.56c.1,1.99-.3,3.97-1.16,5.77-.76,1.4-2.26,2.22-3.84,2.11-1.6,.13-3.13-.69-3.91-2.1-.86-1.8-1.25-3.79-1.16-5.78v-.56c-.08-1.97,.31-3.93,1.16-5.71,.74-1.43,2.25-2.28,3.86-2.16m0-7.04c-4.46,0-7.93,1.38-10.42,4.15-2.57,2.98-3.9,6.83-3.74,10.76v.56c0,4.42,1.25,8.01,3.74,10.77s5.98,4.14,10.47,4.14c4.44,0,7.9-1.38,10.39-4.14,2.57-2.98,3.9-6.84,3.73-10.77v-.56c.17-3.93-1.17-7.78-3.74-10.76-2.49-2.77-5.97-4.15-10.45-4.15"/><path id="Path_498" class="cls-1" d="M184.38,7.54l7.88,14.48-8.15,14.81h10.26l3.87-8.85,3.87,8.85h10.26l-8.15-14.81,7.88-14.48h-10.2l-3.58,8.63h-.16l-3.58-8.63h-10.21Z"/><path id="Path_499" class="cls-1" d="M74.85,13.78c1.61-.12,3.14,.72,3.9,2.14,.51,.99,.84,2.05,.99,3.15h-9.72c.15-1.09,.48-2.15,.98-3.13,.74-1.43,2.25-2.28,3.86-2.16m0-7.04c-4.46,0-7.93,1.38-10.42,4.15-2.57,2.98-3.9,6.83-3.74,10.76v.56c-.17,3.94,1.17,7.79,3.74,10.77,2.49,2.76,5.98,4.15,10.48,4.14,4.44,0,7.9-1.38,10.39-4.14,1.33-1.47,2.32-3.22,2.91-5.11h-9.4s-.03,.07-.05,.1c-.76,1.4-2.26,2.22-3.85,2.11-1.6,.13-3.13-.69-3.91-2.1-.52-1-.85-2.09-.99-3.2h18.87c.11-.85,.16-1.72,.16-2.58v-.56c.16-3.93-1.17-7.78-3.74-10.76-2.49-2.77-5.97-4.15-10.45-4.15"/><path id="Path_500" class="cls-1" d="M15.84,20.31c.73-.28,1.56-.11,2.11,.45,.37,.37,.58,.88,.58,1.41,0,.28-.06,.55-.17,.8-.1,.23-.25,.44-.42,.61h0s-.06,.06-.06,.06c-3.1,2.78-3.36,7.56-.57,10.66,2.78,3.1,7.56,3.36,10.66,.57,3.1-2.78,3.36-7.56,.57-10.66-.18-.2-.37-.39-.57-.57l-.06-.05h0c-.18-.18-.33-.39-.43-.62-.11-.25-.17-.52-.17-.8,0-.53,.21-1.03,.58-1.41h0c.55-.56,1.38-.73,2.11-.45,.22,.08,.42,.21,.6,.36h0l.02,.02c4.73,4.26,5.11,11.54,.86,16.27-4.26,4.73-11.54,5.11-16.27,.86-4.73-4.26-5.11-11.54-.86-16.27,.27-.3,.56-.59,.86-.86,.18-.16,.39-.29,.62-.38m5.68-4.53c.77-.77,2.03-.77,2.81,0,.37,.37,.58,.88,.58,1.41v7.62c0,1.1-.88,1.99-1.98,1.99-.53,0-1.04-.21-1.41-.58h0c-.37-.37-.58-.88-.58-1.41v-7.62c0-.53,.21-1.03,.58-1.41h0Zm1.4-11.86h-.06c-.98,.02-1.91,.41-2.6,1.1L5.03,20.26c-.7,.71-1.09,1.66-1.1,2.66v20.33c0,2.07,1.68,3.75,3.75,3.76h30.49c2.07,0,3.75-1.68,3.75-3.76V22.92c0-.99-.4-1.95-1.1-2.66L25.58,5.02c-.69-.69-1.62-1.08-2.6-1.1h-.06Zm-2.98-3.31C20.85,.22,21.82,.02,22.81,0h.23c1.99,.04,3.9,.84,5.31,2.24l15.25,15.25c1.43,1.44,2.24,3.39,2.25,5.42h0v20.33c-.01,4.24-3.44,7.67-7.68,7.68H7.68c-4.23-.02-7.66-3.45-7.68-7.68V22.92c.01-2.03,.82-3.98,2.26-5.42L17.5,2.25c.7-.7,1.53-1.25,2.44-1.63"/><path id="Path_501" class="cls-2" d="M210.63,42.51h1.8v1.25h-1.8v-1.25Zm-1.74,9.54s.11,.03,.18,.04,.15,.02,.23,.03,.17,.02,.26,.03,.18,.01,.26,.01c.13,0,.26-.01,.38-.05,.1-.03,.19-.09,.26-.16,.07-.09,.13-.19,.15-.31,.03-.15,.05-.31,.05-.47v-6.3h1.75v6.3c.01,.38-.05,.76-.17,1.12-.18,.53-.62,.93-1.16,1.06-.28,.07-.56,.1-.85,.1-.12,0-.26,0-.4-.02s-.28-.03-.42-.05-.27-.05-.4-.08c-.11-.03-.22-.06-.32-.1l.21-1.15Zm-5.16-6.08c-.14,0-.27,.02-.4,.06-.12,.04-.24,.1-.33,.19-.1,.1-.19,.22-.24,.36-.07,.18-.12,.36-.15,.55h2.12c0-.18-.02-.37-.08-.54-.04-.13-.12-.26-.22-.36-.09-.09-.2-.16-.32-.2-.12-.04-.25-.06-.38-.06m-1.15,2.23c.03,.39,.2,.76,.48,1.04,.3,.25,.69,.38,1.09,.36,.3,0,.6-.02,.9-.08,.27-.05,.49-.1,.68-.15l.35,1.05c-.28,.16-.58,.28-.89,.35-.37,.08-.75,.12-1.12,.12-.47,0-.93-.06-1.38-.2-.38-.12-.73-.32-1.02-.59-.28-.26-.5-.59-.65-.94-.16-.41-.23-.84-.23-1.28,0-.45,.07-.89,.21-1.32,.13-.37,.34-.7,.61-.98,.27-.27,.59-.48,.95-.61,.4-.14,.82-.21,1.24-.21,.34,0,.67,.05,.99,.17,.3,.11,.57,.27,.8,.48,.23,.21,.42,.46,.55,.75,.14,.3,.2,.64,.2,.97v1.07h-3.77Zm-7.74-5.69h1.8v1.25h-1.8v-1.25Zm.02,2.37h1.75v5.88h-1.75v-5.88Zm-10.18,0h1.49l.16,.61c.27-.22,.57-.4,.89-.54,.33-.13,.67-.19,1.02-.19,.29,0,.58,.03,.86,.1,.25,.06,.47,.19,.66,.36,.2,.19,.34,.43,.42,.69,.11,.36,.16,.73,.15,1.1v3.75h-1.76v-3.76c0-.15-.01-.3-.05-.45-.03-.11-.08-.21-.15-.3-.07-.08-.16-.14-.26-.17-.12-.04-.24-.05-.37-.05-.24,0-.48,.04-.7,.13-.21,.09-.41,.2-.6,.34v4.26h-1.77v-5.88Zm-8.78,0h4.57v.92l-2.53,3.68h2.85l-.25,1.29h-4.69v-1.02l2.47-3.58h-2.43v-1.29Zm-8.35,2.93c0-.43,.07-.86,.21-1.26,.13-.36,.34-.69,.62-.96,.28-.27,.6-.48,.97-.62,.41-.15,.84-.22,1.27-.22,.33,0,.66,.02,.98,.09,.24,.05,.48,.12,.7,.23l-.32,1.15c-.15-.06-.3-.1-.46-.14-.2-.04-.41-.06-.61-.05-.22,0-.43,.03-.64,.1-.19,.07-.35,.17-.49,.32-.14,.16-.25,.34-.31,.55-.08,.26-.11,.53-.11,.8,0,.27,.03,.54,.11,.8,.06,.21,.17,.4,.31,.56,.13,.15,.3,.26,.49,.33,.21,.07,.42,.11,.64,.11,.14,0,.27,0,.38-.01s.22-.03,.32-.04,.18-.04,.27-.07,.17-.06,.25-.08l.24,1.11c-.22,.12-.46,.21-.7,.28-.33,.08-.67,.12-1.01,.11-.44,0-.88-.07-1.29-.22-.74-.27-1.33-.85-1.61-1.59-.15-.4-.22-.83-.22-1.26m-6.36-1.84c-.14,0-.27,.02-.41,.06-.12,.04-.24,.1-.33,.19-.1,.1-.19,.22-.24,.36-.07,.18-.12,.36-.15,.55h2.13c0-.18-.02-.37-.08-.54-.05-.13-.12-.26-.22-.36-.09-.09-.2-.16-.32-.2-.12-.04-.25-.06-.38-.06m-1.16,2.23c.03,.39,.2,.76,.48,1.04,.3,.25,.69,.38,1.09,.36,.3,0,.6-.02,.9-.08,.26-.05,.49-.1,.68-.15l.35,1.05c-.28,.16-.58,.28-.89,.35-.37,.08-.75,.12-1.12,.12-.47,0-.93-.06-1.38-.2-.38-.12-.73-.32-1.03-.59-.28-.26-.5-.59-.65-.94-.16-.41-.23-.84-.23-1.28,0-.45,.07-.89,.21-1.32,.13-.36,.34-.7,.61-.98,.27-.27,.59-.48,.95-.61,.4-.14,.82-.21,1.24-.21,.34,0,.67,.05,.99,.17,.3,.11,.57,.27,.81,.48,.48,.44,.76,1.07,.74,1.72v1.07h-3.77Zm-7.74-5.69h1.8v1.25h-1.8v-1.25Zm.02,2.37h1.75v5.88h-1.75v-5.88Zm-6.03,2.94c.03-.46-.07-.91-.29-1.32-.22-.32-.59-.49-.97-.46-.2,0-.4,.03-.58,.1-.17,.07-.34,.15-.49,.26v2.82c.15,.11,.32,.2,.49,.27,.19,.07,.38,.1,.58,.1,.38,.03,.75-.14,.97-.46,.22-.4,.32-.86,.29-1.32m-4.11-2.94h1.55l.12,.52c.11-.1,.22-.19,.34-.27,.12-.08,.25-.15,.39-.2,.15-.06,.31-.1,.47-.12,.19-.03,.39-.05,.59-.04,.35,0,.69,.07,1.01,.22,.3,.14,.57,.36,.78,.62,.22,.29,.39,.62,.49,.97,.23,.82,.23,1.69,0,2.52-.1,.35-.27,.68-.49,.97-.21,.26-.47,.47-.78,.62-.32,.15-.66,.22-1.01,.22-.18,0-.36-.01-.53-.04-.15-.02-.3-.05-.44-.1-.13-.05-.25-.1-.37-.17-.11-.07-.22-.15-.33-.23v2.78h-1.77v-8.25Zm-8.78,0h4.58v.92l-2.53,3.68h2.85l-.25,1.29h-4.68v-1.01s2.46-3.58,2.46-3.58h-2.43v-1.29Zm-6.32,1.1c-.14,0-.27,.02-.4,.06-.12,.04-.24,.1-.33,.19-.1,.1-.19,.22-.24,.36-.07,.18-.12,.36-.15,.55h2.13c0-.18-.02-.37-.08-.54-.04-.13-.12-.26-.22-.36-.09-.09-.2-.16-.32-.2-.12-.04-.25-.06-.38-.06m-1.15,2.23c.03,.39,.2,.76,.48,1.04,.3,.25,.69,.38,1.09,.36,.3,0,.6-.02,.9-.08,.23-.04,.46-.09,.68-.15l.36,1.05c-.28,.16-.58,.28-.89,.35-.37,.08-.75,.12-1.12,.12-.47,0-.93-.06-1.38-.2-.38-.12-.73-.32-1.03-.59-.28-.26-.5-.59-.64-.94-.16-.41-.23-.84-.22-1.28,0-.45,.07-.89,.21-1.32,.13-.36,.34-.7,.61-.98,.27-.27,.59-.48,.95-.61,.4-.14,.82-.21,1.24-.21,.34,0,.67,.05,.99,.17,.3,.11,.57,.27,.81,.48,.23,.21,.42,.46,.55,.75,.14,.3,.21,.64,.2,.97v1.07h-3.77Zm-7.38-.39c.03-.46-.07-.91-.29-1.31-.22-.31-.59-.49-.97-.45-.2,0-.39,.03-.58,.1-.17,.07-.34,.15-.49,.26v2.82c.15,.11,.32,.2,.49,.27,.18,.07,.38,.1,.58,.1,.2,0,.4-.04,.58-.12,.16-.08,.29-.2,.39-.35,.11-.17,.18-.36,.22-.56,.05-.25,.07-.51,.07-.76m-4.11-5.3h1.77v2.8c.1-.09,.21-.16,.33-.23,.12-.07,.24-.13,.37-.17,.14-.05,.29-.08,.44-.1,.18-.02,.36-.04,.54-.03,.35,0,.69,.07,1.01,.22,.3,.14,.57,.35,.77,.62,.23,.28,.4,.61,.5,.96,.23,.82,.23,1.69,0,2.52-.1,.35-.27,.68-.5,.97-.21,.26-.47,.48-.77,.62-.32,.15-.66,.23-1.01,.22-.2,0-.4-.01-.59-.04-.16-.03-.32-.07-.47-.13-.14-.06-.27-.13-.4-.21-.12-.08-.24-.18-.35-.28l-.14,.55h-1.5v-8.26Zm-19.37,2.37h1.48l.14,.56c.27-.21,.56-.38,.88-.5,.32-.12,.66-.18,1.01-.18,.36,0,.72,.04,1.07,.15,.3,.09,.55,.28,.72,.53,.27-.21,.57-.38,.89-.5,.34-.12,.69-.18,1.05-.18,.29,0,.58,.03,.86,.1,.25,.06,.47,.19,.66,.36,.2,.19,.34,.42,.42,.68,.11,.35,.16,.71,.15,1.08v3.78h-1.76v-3.78c.02-.26-.05-.52-.2-.73-.17-.16-.39-.23-.62-.22-.21,0-.42,.03-.62,.1-.19,.07-.37,.16-.54,.27,0,.04,0,.08,.01,.12s0,.08,0,.12v4.11h-1.76v-3.97c.02-.21-.05-.43-.19-.59-.18-.13-.4-.19-.62-.17-.23,0-.46,.04-.67,.12-.21,.08-.4,.18-.58,.31v4.29h-1.77v-5.89Zm-6.66,1.1c-.14,0-.27,.02-.4,.06-.12,.04-.24,.1-.33,.19-.1,.1-.19,.22-.24,.36-.07,.18-.12,.36-.15,.55h2.13c0-.18-.02-.37-.08-.54-.04-.13-.12-.26-.22-.36-.09-.09-.2-.16-.32-.2-.12-.04-.25-.06-.38-.06m-1.15,2.23c.03,.39,.2,.76,.48,1.04,.3,.25,.69,.38,1.09,.36,.3,0,.6-.02,.9-.08,.26-.05,.49-.1,.68-.15l.36,1.05c-.28,.16-.58,.28-.89,.35-.37,.08-.75,.12-1.12,.12-.47,0-.93-.06-1.38-.2-.38-.12-.73-.32-1.03-.59-.28-.26-.5-.59-.64-.94-.16-.41-.23-.84-.22-1.28,0-.45,.07-.89,.21-1.32,.13-.36,.34-.7,.61-.98,.27-.27,.59-.48,.95-.61,.4-.14,.82-.21,1.24-.21,.34,0,.67,.05,.99,.17,.3,.11,.57,.27,.81,.48,.23,.21,.42,.46,.54,.75,.14,.3,.21,.64,.2,.97v1.07h-3.77Zm-10.16-3.33h4.57v.92l-2.53,3.68h2.86l-.25,1.29h-4.68v-1.01s2.46-3.58,2.46-3.58h-2.43v-1.29Zm-7.02,4.78c.14,0,.28-.01,.42-.04,.12-.03,.24-.06,.36-.1,.09-.03,.19-.07,.28-.12,.08-.04,.13-.07,.17-.1v-1.1h-.91c-.18,0-.35,.03-.51,.1-.12,.05-.23,.13-.31,.22-.07,.08-.12,.17-.16,.27-.02,.07-.04,.15-.04,.22-.01,.18,.06,.35,.2,.47,.14,.11,.32,.17,.5,.16m1.23-2.45v-.1c0-.16-.02-.32-.07-.48-.04-.12-.12-.22-.22-.3-.1-.08-.23-.14-.36-.16-.16-.03-.33-.05-.5-.05-.16,0-.32,.01-.47,.03-.16,.02-.32,.05-.47,.09-.15,.03-.29,.07-.44,.12-.12,.04-.24,.08-.35,.14l-.3-1.2c.15-.08,.31-.15,.48-.21,.18-.06,.36-.12,.56-.17,.2-.05,.39-.08,.59-.11,.2-.03,.39-.04,.59-.04,.37,0,.74,.03,1.1,.1,.31,.06,.6,.19,.85,.37,.25,.19,.44,.44,.55,.72,.15,.36,.21,.75,.2,1.15v3.65h-1.57l-.11-.61c-.1,.08-.2,.15-.3,.22-.28,.19-.6,.32-.93,.41-.2,.05-.4,.08-.6,.08-.29,0-.57-.04-.84-.13-.23-.08-.43-.2-.61-.36-.16-.15-.29-.33-.37-.54-.09-.21-.13-.44-.13-.66,0-.27,.07-.53,.2-.76,.14-.24,.33-.46,.56-.62,.26-.19,.54-.33,.85-.42,.35-.11,.7-.16,1.07-.16h1.05Zm-10.49-2.33h1.48l.17,.81c.19-.3,.44-.54,.75-.72,.26-.14,.56-.21,.85-.21,.08,0,.16,0,.25,0s.17,0,.25,.01l-.1,1.43c-.1-.02-.2-.03-.31-.04-.1,0-.22,0-.35,0-.24,0-.47,.07-.66,.2-.22,.15-.4,.33-.56,.54v3.87h-1.77v-5.89Z"/><rect id="Rectangle_653" class="cls-3" y="0" width="212.43" height="53.45"/></g></svg>