<svg width="168" height="37" viewBox="0 0 168 37" fill="none" xmlns="http://www.w3.org/2000/svg">
<g clip-path="url(#clip0_2022_3131)">
<path d="M157.267 12.345H150.418V9.14488C150.418 8.70107 150.173 8.07039 149.648 8.07039H145.32C144.807 8.07039 144.55 8.70107 144.55 9.14488V12.345H137.667C137.361 12.3748 137.077 12.5175 136.871 12.7453C136.664 12.9731 136.55 13.2696 136.55 13.5772C136.55 13.8847 136.664 14.1813 136.871 14.409C137.077 14.6368 137.361 14.7795 137.667 14.8093H144.515V29.9924C144.515 30.4246 144.772 31.0669 145.285 31.0669H149.613C150.127 31.0669 150.383 30.4362 150.383 30.0041V14.821H157.232C157.537 14.7912 157.821 14.6485 158.027 14.4207C158.234 14.1929 158.348 13.8964 158.348 13.5889C158.348 13.2813 158.234 12.9848 158.027 12.757C157.821 12.5292 157.537 12.3865 157.232 12.3567" fill="#525252"/>
<path d="M128.753 25.2623C128.753 26.0862 128.426 26.8764 127.844 27.4591C127.262 28.0417 126.472 28.369 125.649 28.369H116.946C116.123 28.3684 115.334 28.0408 114.753 27.458C114.171 26.8758 113.843 26.086 113.843 25.2623V23.3586C113.843 22.5346 114.17 21.7444 114.752 21.1618C115.334 20.5792 116.123 20.2519 116.946 20.2519H125.649C126.472 20.2519 127.262 20.5792 127.844 21.1618C128.426 21.7444 128.753 22.5346 128.753 23.3586V25.2623ZM127.679 12.345H113.609C113.449 12.3409 113.29 12.3699 113.141 12.4302C112.993 12.4905 112.858 12.5807 112.746 12.6954C112.631 12.8104 112.54 12.9469 112.478 13.0972C112.415 13.2475 112.383 13.4086 112.383 13.5713C112.383 13.734 112.415 13.8951 112.478 14.0454C112.54 14.1957 112.631 14.3323 112.746 14.4473C112.857 14.564 112.991 14.6565 113.14 14.7188C113.288 14.7811 113.448 14.8119 113.609 14.8093H125.603C126.023 14.7907 126.443 14.8626 126.833 15.0203C127.223 15.178 127.575 15.4177 127.865 15.7233C128.155 16.0289 128.376 16.3933 128.513 16.7917C128.65 17.1901 128.7 17.6134 128.659 18.0328H114.473C111.451 17.9511 108.126 20.1117 108.126 23.3352V25.7528C108.126 28.7077 111.194 31.0786 113.959 31.0786H128.589C128.851 31.0737 129.112 31.0503 129.371 31.0085C130.839 30.7719 132.17 30.0079 133.116 28.8595C134.644 27.0726 134.551 25.6477 134.551 23.4987V18.1146C134.609 14.3772 131.144 12.3684 127.679 12.345Z" fill="#525252"/>
<path d="M97.9998 12.3801H85.0499C84.6231 12.3968 84.2134 12.5526 83.8832 12.8239C83.6013 13.0595 83.4012 13.3784 83.3116 13.7349V13.4896C83.3816 12.9056 83.1249 12.3217 82.5416 12.3217H78.1666C78.0645 12.3217 77.9634 12.342 77.8692 12.3814C77.775 12.4209 77.6896 12.4787 77.6179 12.5516C77.5463 12.6244 77.4898 12.7107 77.4518 12.8056C77.4138 12.9005 77.395 13.002 77.3966 13.1042V30.3662C77.395 30.4678 77.4138 30.5688 77.452 30.663C77.4901 30.7572 77.5468 30.8429 77.6186 30.9147C77.6904 30.9866 77.7759 31.0434 77.8701 31.0815C77.9642 31.1197 78.065 31.1386 78.1666 31.137H82.4949C82.5997 31.1453 82.7051 31.1313 82.8042 31.096C82.9033 31.0607 82.9938 31.0048 83.0698 30.932C83.1458 30.8592 83.2056 30.7712 83.2452 30.6737C83.2849 30.5762 83.3035 30.4714 83.2999 30.3662V17.1569C83.3527 16.7904 83.4844 16.4398 83.6858 16.1293C83.8872 15.8187 84.1536 15.5557 84.4665 15.3583C85.0072 14.966 85.6665 14.7721 86.3332 14.8094H94.9665C95.737 14.7755 96.4903 15.0436 97.0665 15.5568C97.3631 15.8214 97.6014 16.1451 97.7662 16.507C97.9309 16.869 98.0184 17.2614 98.0231 17.6591V30.3662C98.0198 30.4678 98.0375 30.569 98.0752 30.6633C98.1129 30.7577 98.1697 30.8433 98.242 30.9146C98.3144 30.986 98.4007 31.0415 98.4955 31.0778C98.5904 31.114 98.6917 31.1302 98.7931 31.1253C100.163 31.0634 101.458 30.4822 102.415 29.4997C103.373 28.5173 103.922 27.207 103.95 25.8346C104.055 24.5849 103.95 23.0316 103.95 21.7585V18.3949C103.939 16.9919 103.43 15.6384 102.515 14.5758C101.965 13.9049 101.277 13.3613 100.498 12.9822C99.7184 12.6032 98.8662 12.3978 97.9998 12.3801Z" fill="#525252"/>
<path d="M66.197 25.6945C66.1963 26.111 66.1099 26.523 65.9433 26.9048C65.7768 27.2866 65.5335 27.6299 65.2287 27.9135C64.8924 28.1478 64.5129 28.3129 64.1124 28.3991C63.7118 28.4853 63.2981 28.491 62.8953 28.4157H54.0987C53.5529 28.4608 53.0071 28.3283 52.5425 28.0379C52.078 27.7475 51.7195 27.3147 51.5204 26.804C51.3886 26.4493 51.3252 26.0728 51.3337 25.6945V17.6825C51.3365 17.2662 51.4237 16.8548 51.5902 16.4734C51.7567 16.0919 51.9988 15.7483 52.302 15.4634C52.6279 15.2044 53.0022 15.0132 53.4028 14.9009C53.8035 14.7886 54.2225 14.7575 54.6353 14.8093H63.0003C63.4131 14.7594 63.8317 14.7915 64.2321 14.9037C64.6325 15.0159 65.0068 15.2061 65.3337 15.4634C65.6368 15.7483 65.879 16.0919 66.0455 16.4734C66.2119 16.8548 66.2992 17.2662 66.302 17.6825L66.197 25.6945ZM66.1037 12.3917H51.952C48.907 12.3917 45.582 14.5991 45.582 17.7876C45.582 20.4738 45.582 23.16 45.582 25.858C45.6719 26.797 45.9956 27.6985 46.5235 28.48C47.0514 29.2615 47.7666 29.8979 48.6037 30.3311C49.6314 30.8962 50.7918 31.1745 51.9637 31.137H64.482C64.8942 31.1541 65.2999 31.0305 65.6327 30.7864C65.9655 30.5424 66.2056 30.1924 66.3137 29.7939C66.197 31.9662 65.8237 34.6408 63.047 34.6408H51.0654C50.7451 34.6408 50.438 34.7681 50.2115 34.9948C49.9851 35.2215 49.8579 35.529 49.8579 35.8496C49.8579 36.1702 49.9851 36.4777 50.2115 36.7044C50.438 36.931 50.7451 37.0584 51.0654 37.0584H66.3487C67.1752 37.0204 67.9835 36.8021 68.717 36.4188C69.4505 36.0355 70.0916 35.4965 70.5953 34.8393C71.5279 33.7808 72.0459 32.4199 72.0536 31.0085C72.0536 26.7923 72.0536 22.5761 72.0536 18.3599C72.0131 16.7874 71.3749 15.2897 70.2693 14.1721C69.1637 13.0544 67.6739 12.401 66.1037 12.345V12.3917Z" fill="#525252"/>
<path d="M21.8169 18.0445H9.43856C6.25356 18.0445 5.28523 10.8617 9.5319 10.8617H17.8852C24.6052 10.8617 22.5519 14.6575 25.0602 15.2648C26.6469 15.6736 30.7069 15.8838 29.7269 13.1509C28.1636 8.6193 25.4102 8.17549 20.9186 8.17549H7.75856C6.56853 8.14794 5.38317 8.33385 4.25856 8.72442C3.02182 9.21243 1.94945 10.0429 1.1669 11.1187C0.49443 11.8869 0.0870434 12.8515 0.00509091 13.8697C-0.0768616 14.8878 0.17098 15.9053 0.711898 16.7715C2.15857 19.4927 5.48356 20.357 8.33023 20.2752H20.7202C23.9052 20.2752 24.8852 28.369 20.6269 28.369H12.2736C5.55357 28.369 7.6069 24.5732 5.09857 23.9542C3.50023 23.5571 -0.536435 23.3586 0.408565 26.0798C1.99523 30.6114 4.74857 31.0786 9.2519 31.0903C13.7552 31.1019 18.0252 31.0903 22.4119 31.0903C23.6012 31.1218 24.7866 30.9399 25.9119 30.553C27.1588 30.0542 28.2361 29.2068 29.0152 28.112C29.6942 27.1715 30.0976 26.06 30.18 24.9025C30.2625 23.745 30.0207 22.5874 29.4819 21.56C28.0352 18.8153 24.7336 17.9744 21.8636 18.0562" fill="#525252"/>
<path fill-rule="evenodd" clip-rule="evenodd" d="M35.1279 12.3333H39.4679C39.6732 12.3333 39.8702 12.4142 40.0165 12.5584C40.1628 12.7026 40.2465 12.8987 40.2495 13.1042V30.3662C40.2495 30.4689 40.2293 30.5707 40.19 30.6656C40.1507 30.7606 40.0932 30.8468 40.0206 30.9195C39.948 30.9922 39.8618 31.0498 39.767 31.0891C39.6722 31.1284 39.5705 31.1487 39.4679 31.1487H35.1279C34.9205 31.1487 34.7217 31.0662 34.5751 30.9195C34.4285 30.7727 34.3462 30.5737 34.3462 30.3662V13.1042C34.3493 12.8987 34.433 12.7026 34.5792 12.5584C34.7255 12.4142 34.9226 12.3333 35.1279 12.3333Z" fill="#00B3FF"/>
<path fill-rule="evenodd" clip-rule="evenodd" d="M162.879 12.3333H167.23C167.433 12.3364 167.627 12.4185 167.771 12.5624C167.915 12.7064 167.997 12.9007 168 13.1042V30.3662C168 30.5717 167.919 30.769 167.775 30.9154C167.631 31.0618 167.435 31.1456 167.23 31.1487H162.879C162.684 31.1311 162.502 31.041 162.371 30.8961C162.239 30.7512 162.166 30.5621 162.167 30.3662V13.1042C162.17 12.9007 162.252 12.7064 162.396 12.5624C162.54 12.4185 162.734 12.3364 162.937 12.3333" fill="#525252"/>
<path fill-rule="evenodd" clip-rule="evenodd" d="M37.3337 0C38.2566 0 39.1589 0.273991 39.9263 0.787326C40.6938 1.30066 41.2919 2.03028 41.6451 2.88393C41.9983 3.73757 42.0907 4.6769 41.9107 5.58312C41.7306 6.48935 41.2861 7.32177 40.6335 7.97512C39.9808 8.62847 39.1493 9.07341 38.2441 9.25367C37.3388 9.43393 36.4005 9.34141 35.5478 8.98782C34.6951 8.63423 33.9662 8.03544 33.4535 7.26718C32.9407 6.49892 32.667 5.5957 32.667 4.67172C32.667 3.4327 33.1587 2.24443 34.0338 1.36831C34.909 0.492197 36.096 0 37.3337 0" fill="#00B3FF"/>
</g>
<defs>
<clipPath id="clip0_2022_3131">
<rect width="168" height="37" fill="white"/>
</clipPath>
</defs>
</svg>
